<svg viewBox="0 0 1024 683" xmlns="http://www.w3.org/2000/svg">
  <!-- Orange stripe -->
  <rect width="1024" height="227.67" fill="#FF9933"/>
  
  <!-- White stripe -->
  <rect y="227.67" width="1024" height="227.66" fill="#FFFFFF"/>
  
  <!-- Green stripe -->
  <rect y="455.33" width="1024" height="227.67" fill="#138808"/>
  
  <!-- Ashoka Chakra (Blue) -->
  <g transform="translate(512, 341.5)">
    <!-- Outer circle -->
    <circle cx="0" cy="0" r="90" fill="none" stroke="#003DA5" stroke-width="8"/>
    
    <!-- Inner circle -->
    <circle cx="0" cy="0" r="70" fill="none" stroke="#003DA5" stroke-width="2"/>
    
    <!-- Center dot -->
    <circle cx="0" cy="0" r="8" fill="#003DA5"/>
    
    <!-- 24 spokes -->
    <g stroke="#003DA5" stroke-width="2">
      <line x1="0" y1="-70" x2="0" y2="-90"/>
      <line x1="18.34" y1="-67.56" x2="23.51" y2="-86.88"/>
      <line x1="35.36" y1="-60.62" x2="45.45" y2="-77.78"/>
      <line x1="49.50" y1="-49.50" x2="63.64" y2="-63.64"/>
      <line x1="60.62" y1="-35.36" x2="77.78" y2="-45.45"/>
      <line x1="67.56" y1="-18.34" x2="86.88" y2="-23.51"/>
      <line x1="70" y1="0" x2="90" y2="0"/>
      <line x1="67.56" y1="18.34" x2="86.88" y2="23.51"/>
      <line x1="60.62" y1="35.36" x2="77.78" y2="45.45"/>
      <line x1="49.50" y1="49.50" x2="63.64" y2="63.64"/>
      <line x1="35.36" y1="60.62" x2="45.45" y2="77.78"/>
      <line x1="18.34" y1="67.56" x2="23.51" y2="86.88"/>
      <line x1="0" y1="70" x2="0" y2="90"/>
      <line x1="-18.34" y1="67.56" x2="-23.51" y2="86.88"/>
      <line x1="-35.36" y1="60.62" x2="-45.45" y2="77.78"/>
      <line x1="-49.50" y1="49.50" x2="-63.64" y2="63.64"/>
      <line x1="-60.62" y1="35.36" x2="-77.78" y2="45.45"/>
      <line x1="-67.56" y1="18.34" x2="-86.88" y2="23.51"/>
      <line x1="-70" y1="0" x2="-90" y2="0"/>
      <line x1="-67.56" y1="-18.34" x2="-86.88" y2="-23.51"/>
      <line x1="-60.62" y1="-35.36" x2="-77.78" y2="-45.45"/>
      <line x1="-49.50" y1="-49.50" x2="-63.64" y2="-63.64"/>
      <line x1="-35.36" y1="-60.62" x2="-45.45" y2="-77.78"/>
      <line x1="-18.34" y1="-67.56" x2="-23.51" y2="-86.88"/>
    </g>
  </g>
</svg>
